<?xml version="1.0" encoding="UTF-8"?>
<svg
  id="Camada_1"
  data-name="Camada 1"
  xmlns="http://www.w3.org/2000/svg"
  viewBox="0 0 201.69 187"
  fill="currentColor"
>
  <path d="M147.24,83.23c.05-.05.1-.1.14-.15.44-.63.48-1.44.1-2.11L102.08,1c-.36-.63-1.02-1-1.74-1-.73,0-1.37.4-1.72,1.04l-4.57,8.5s-.03.09-.05.13c-.05.05-.09.1-.13.17l-40.03,71.74c-.21.38-.15.86.16,1.17l7.82,7.96c.09.1.2.17.32.22l32.72,33.12v60c0,1.63,1.33,2.96,2.97,2.96h5.93c1.63,0,2.97-1.33,2.97-2.96v-60.02l40.51-40.77h-.01ZM100.85,112.11l-31.71-32.09,31.33-57.16,32.13,57.29-31.76,31.96Z"/>
  <path d="M194.76,83.37c-4.72-5.16-10.97-8.02-17.62-8.05h-.07c-10.83,0-22.6,11.12-38.03,26.82-.79.8-1.57,1.6-2.34,2.37l-22.52,21.78c-.52.5-.7,1.22-.54,1.87l-.06-.02v29.64h.08s-.01.09-.01.13c0,.53.2,1.03.57,1.4l22.76,23.05c.37.38.87.58,1.39.59h.01c.52,0,1.02-.2,1.39-.57l5.62-5.55c.38-.37.58-.87.59-1.39,0-.53-.2-1.03-.57-1.4l-19.97-20.23v-21.25l17.96-17.58c.13-.13.24-.28.33-.44,1.27-1.27,2.57-2.59,3.91-3.96,8.54-8.69,22.83-23.22,29.43-23.22h.02c3.24.01,6.35,1.48,8.77,4.13,2.42,2.64,3.79,6.11,3.78,9.5-.01,3.46-1.5,6.84-4.06,9.29-2.52,2.4-5.87,3.64-9.41,3.49h-.24c-3.06-.02-8.33-1.87-10.33-3.31v.02s-.05-.04-.07-.05c-1.28-.92-2.73,1.37-4.67,4.08-1.94,2.71-3.63,4.82-2.35,5.74.08.06.16.1.24.14,4.25,2.97,11.77,5.39,17.01,5.44.34.01.68.02,1.02.02,6.44,0,12.48-2.4,17.12-6.83,4.93-4.7,7.77-11.25,7.8-17.97.03-6.39-2.5-12.83-6.93-17.69Z"/>
  <path d="M88.03,128.18h-.04c-.08-.63-.36-1.25-.86-1.74l-20.09-19.64.06-.06c-1.43-1.43-2.92-2.95-4.46-4.51-15.43-15.7-27.2-26.82-38.03-26.82h-.07c-6.65.03-12.9,2.89-17.62,8.05C2.5,88.31-.03,94.76,0,101.14c.03,6.72,2.87,13.27,7.8,17.97,4.64,4.43,10.69,6.83,17.12,6.83.34,0,.68,0,1.02-.02,5.25-.06,12.8-2.49,17.04-5.47.02-.01.04-.02.05-.03.01,0,.02-.02.03-.03.03-.02.06-.04.09-.06h0c1.23-1.07-.42-3.13-2.28-5.78-1.92-2.73-3.35-5.03-4.8-4.01-.06.04-.1.08-.15.13-2.12,1.43-7.17,3.17-10.15,3.19h-.24c-3.55.16-6.89-1.08-9.41-3.48-2.57-2.45-4.05-5.83-4.06-9.29-.01-3.39,1.36-6.86,3.78-9.5,2.42-2.65,5.53-4.11,8.77-4.13h.02c6.61,0,20.89,14.53,29.43,23.21,1.56,1.59,3.08,3.13,4.53,4.58l.05-.05c.14.29.33.55.56.78l16.92,16.73v21.34l-19.85,20.11c-.37.38-.57.87-.57,1.4,0,.53.21,1.02.59,1.39l5.62,5.55c.37.37.87.57,1.39.57h.01c.53,0,1.02-.21,1.39-.59l22.8-23.1c.37-.38.57-.87.57-1.4,0-.14-.02-.27-.05-.4v-29.42Z"/>
</svg>