<svg width="205" height="190" viewBox="0 0 205 190" fill="none" xmlns="http://www.w3.org/2000/svg"><path d="M99.0155 119.748H105.015C106.396 119.748 107.515 120.867 107.515 122.248V186.248C107.515 187.629 106.395 188.748 105.014 188.748H99.0164C97.6356 188.748 96.5155 187.629 96.5155 186.248V122.248C96.5155 120.867 97.6348 119.748 99.0155 119.748Z" fill="currentColor" stroke="currentColor"/><path d="M147.678 84.1762L103.934 128.199L96.3269 120.64L140.935 75.7475L147.678 84.1762Z" fill="currentColor" stroke="currentColor" stroke-width="2"/><path transform="rotate(-44.6544 55.8022 84.1161)" fill="currentColor" stroke="currentColor" d="M55.802 84.116H67.589V148.523H55.802z"/><path d="M100.25 1.28887C100.809 0.250352 102.293 0.23353 102.875 1.25925L148.814 82.1859C149.439 83.288 148.501 84.6211 147.252 84.4042L136.176 82.479C135.731 82.4017 135.344 82.1287 135.123 81.7351L95.6376 11.3311C95.3865 10.8835 95.3818 10.3387 95.6249 9.88677L100.25 1.28887Z" fill="currentColor" stroke="currentColor"/><path d="M107.361 10.2083C107.735 10.2173 107.967 10.6198 107.787 10.9483L63.7234 91.3277C63.5621 91.6213 63.1634 91.6768 62.9286 91.4378L55.0135 83.3804C54.8582 83.2221 54.8261 82.9801 54.9342 82.7865L95.4415 10.189C95.532 10.0271 95.7049 9.92879 95.8903 9.93325L107.361 10.2083Z" fill="currentColor" stroke="currentColor"/><rect x="114.908" y="159.859" width="11" height="35.7847" rx="1.5" transform="rotate(-44.6362 114.908 159.859)" fill="currentColor" stroke="currentColor"/><path d="M115.015 129.748L127.015 133.449V161.075L115.015 159.748V129.748Z" fill="currentColor"/><path d="M115.015 129.748L127.015 133.449V161.075L115.015 159.748V129.748Z" fill="currentColor"/><path d="M115.015 129.748L127.015 133.449V161.075L115.015 159.748V129.748Z" stroke="currentColor"/><path d="M138.498 105.734C139.515 104.736 141.22 105.092 141.753 106.413L145.071 114.629C145.373 115.376 145.197 116.23 144.626 116.797L124.143 137.126C123.344 137.918 122.049 137.896 121.278 137.077L115.547 130.991C114.801 130.198 114.825 128.954 115.603 128.192L138.498 105.734Z" fill="currentColor"/><path d="M138.498 105.734C139.515 104.736 141.22 105.092 141.753 106.413L145.071 114.629C145.373 115.376 145.197 116.23 144.626 116.797L124.143 137.126C123.344 137.918 122.049 137.896 121.278 137.077L115.547 130.991C114.801 130.198 114.825 128.954 115.603 128.192L138.498 105.734Z" fill="currentColor"/><path d="M115.547 130.991L121.278 137.077C122.049 137.896 123.344 137.918 124.143 137.126L144.626 116.797C145.197 116.23 145.373 115.376 145.071 114.629L141.753 106.413C141.22 105.092 139.515 104.736 138.498 105.734L115.603 128.192C114.825 128.954 114.801 130.198 115.547 130.991Z" stroke="currentColor"/><path d="M164.015 116.748C167.173 119.025 173.773 121.23 178.015 121.248C189.515 121.748 197.972 112.423 198.015 102.248C198.059 92.0731 189.774 82.3744 179.243 82.3294C168.711 82.2844 152.515 100.248 140.515 112.248" stroke="currentColor" stroke-width="12.2"/><rect x="-0.707093" y="0.00448918" width="11" height="35.8472" rx="1.5" transform="matrix(-0.711582 -0.702603 -0.702603 0.711582 88.7516 159.398)" fill="currentColor" stroke="currentColor"/><path d="M89.1002 129.884L77.1002 133.533V161.158L89.1002 160.248V129.884Z" fill="currentColor"/><path d="M89.1002 129.884L77.1002 133.533V161.158L89.1002 160.248V129.884Z" fill="currentColor"/><path d="M89.1002 129.884L77.1002 133.533V161.158L89.1002 160.248V129.884Z" stroke="currentColor"/><path d="M66.7024 106.882C65.1722 105.381 62.6069 105.923 61.8142 107.914L59.3309 114.153C58.8863 115.27 59.1516 116.545 60.005 117.392L79.6174 136.856C80.8156 138.045 82.7588 138.012 83.9156 136.783L88.2693 132.155C89.3879 130.966 89.3505 129.101 88.1852 127.958L66.7024 106.882Z" fill="currentColor"/><path d="M66.7024 106.882C65.1722 105.381 62.6069 105.923 61.8142 107.914L59.3309 114.153C58.8863 115.27 59.1516 116.545 60.005 117.392L79.6174 136.856C80.8156 138.045 82.7588 138.012 83.9156 136.783L88.2693 132.155C89.3879 130.966 89.3505 129.101 88.1852 127.958L66.7024 106.882Z" fill="currentColor"/><path d="M88.2693 132.155L83.9156 136.783C82.7588 138.012 80.8156 138.045 79.6174 136.856L60.005 117.392C59.1516 116.545 58.8863 115.27 59.3309 114.153L61.8142 107.914C62.6069 105.923 65.1722 105.381 66.7024 106.882L88.1852 127.958C89.3505 129.101 89.3879 130.966 88.2693 132.155Z" stroke="currentColor"/><path d="M40.1001 116.831C36.9422 119.109 30.3426 121.313 26.1001 121.331C14.6001 121.831 6.1436 112.506 6.10016 102.331C6.05672 92.1565 14.3412 82.4578 24.8731 82.4129C35.405 82.3679 51.6002 100.332 63.6002 112.332" stroke="currentColor" stroke-width="12.2"/><path d="M165.134 117.571C163.173 120.315 161.706 122.628 160.406 121.699 159.106 120.77 160.819 118.633 162.781 115.889 164.742 113.144 166.209 110.832 167.509 111.761 168.809 112.69 167.096 114.826 165.134 117.571ZM41.352 115.933C43.299 118.691 45.017 120.829 43.548 121.867 42.079 122.904 40.639 120.57 38.691 117.811 36.744 115.053 35.026 112.915 36.495 111.878 37.964 110.84 39.404 113.175 41.352 115.933Z" fill="currentColor"/></svg>